<svg width="25" height="25" viewBox="0 0 25 25" fill="none" xmlns="http://www.w3.org/2000/svg">
<path fill-rule="evenodd" clip-rule="evenodd" d="M19.5312 5.20833H16.75L15.4896 3.83333C15.0283 3.37978 14.4073 3.12543 13.7604 3.125H10.7187C10.0606 3.13051 9.43138 3.39642 8.96874 3.86458L7.72916 5.20833H4.94791C4.51643 5.20833 4.16666 5.55811 4.16666 5.98958C4.16666 6.42106 4.51643 6.77083 4.94791 6.77083H19.5312C19.9627 6.77083 20.3125 6.42106 20.3125 5.98958C20.3125 5.55811 19.9627 5.20833 19.5312 5.20833ZM10.0937 4.9375C10.26 4.77227 10.4844 4.67878 10.7187 4.67708H13.7604C13.9851 4.67641 14.2014 4.7622 14.3646 4.91667L14.625 5.19792H9.85416L10.0937 4.9375Z" fill="white"/>
<path fill-rule="evenodd" clip-rule="evenodd" d="M4.40624 9.91667V17.7083C4.40624 20.2742 6.48625 22.3542 9.05207 22.3542H15.4271C17.9929 22.3542 20.0729 20.2742 20.0729 17.7083V9.91667C20.0729 8.76607 19.1402 7.83333 17.9896 7.83333H6.53124C5.97152 7.82214 5.43085 8.03668 5.03109 8.4286C4.63133 8.82052 4.40613 9.35684 4.40624 9.91667ZM9.89582 13.5938C9.89582 14.0252 9.54605 14.375 9.11457 14.375C8.6831 14.375 8.33332 14.0252 8.33332 13.5938V11.125C8.33332 10.6935 8.6831 10.3438 9.11457 10.3438C9.54605 10.3438 9.89582 10.6935 9.89582 11.125V13.5938ZM12.2396 18.4896C12.671 18.4896 13.0208 18.1398 13.0208 17.7083V11.125C13.0208 10.6935 12.671 10.3438 12.2396 10.3438C11.8081 10.3438 11.4583 10.6935 11.4583 11.125V17.7083C11.4583 18.1398 11.8081 18.4896 12.2396 18.4896ZM16.1458 13.5938C16.1458 14.0252 15.796 14.375 15.3646 14.375C14.9331 14.375 14.5833 14.0252 14.5833 13.5938V11.125C14.5833 10.6935 14.9331 10.3438 15.3646 10.3438C15.796 10.3438 16.1458 10.6935 16.1458 11.125V13.5938Z" fill="white"/>
</svg>
