<svg width="28" height="28" viewBox="0 0 28 28" fill="none" xmlns="http://www.w3.org/2000/svg">
<path d="M16.3345 18.6769C16.3345 20.7419 15.4361 22.6085 14.0011 23.8802C12.7645 25.0002 11.1311 25.6769 9.33447 25.6769C5.47281 25.6769 2.33447 22.5385 2.33447 18.6769C2.33447 15.4569 4.52781 12.7269 7.49114 11.9219C8.29614 13.9519 10.0228 15.5152 12.1578 16.0985C12.7411 16.2619 13.3595 16.3435 14.0011 16.3435C14.6428 16.3435 15.2611 16.2619 15.8445 16.0985C16.1595 16.8919 16.3345 17.7669 16.3345 18.6769Z" fill="#0019FF" stroke="#0019FF" stroke-width="1.5" stroke-linecap="round" stroke-linejoin="round"/>
<path d="M12.5986 18.6495C12.5986 20.7145 13.497 22.5812 14.932 23.8529C16.1686 24.9729 17.802 25.6495 19.5986 25.6495C23.4603 25.6495 26.5986 22.5112 26.5986 18.6495C26.5986 15.4295 24.4053 12.6995 21.442 11.8945C20.637 13.9245 18.9103 15.4879 16.7753 16.0712C16.192 16.2345 15.5736 16.3162 14.932 16.3162C14.2903 16.3162 13.672 16.2345 13.0886 16.0712C12.7736 16.8645 12.5986 17.7395 12.5986 18.6495Z" fill="#05FF00" stroke="#05FF00" stroke-width="1.5" stroke-linecap="round" stroke-linejoin="round"/>
<path d="M21 9.32422C21 10.2342 20.825 11.1092 20.51 11.9026C19.705 13.9326 17.9783 15.4959 15.8433 16.0792C15.26 16.2426 14.6417 16.3242 14 16.3242C13.3583 16.3242 12.74 16.2426 12.1567 16.0792C10.0217 15.4959 8.295 13.9326 7.49 11.9026C7.175 11.1092 7 10.2342 7 9.32422C7 5.46255 10.1383 2.32422 14 2.32422C17.8617 2.32422 21 5.46255 21 9.32422Z" fill="#FF0000" stroke="#FF0000" stroke-width="1.5" stroke-linecap="round" stroke-linejoin="round"/>
</svg>
