<svg width="45" height="44" viewBox="0 0 45 44" fill="none" xmlns="http://www.w3.org/2000/svg">
<path fill-rule="evenodd" clip-rule="evenodd" d="M27.0412 6.85027L36.37 13.5052C38.1679 14.7618 39.2376 16.771 39.2499 18.9144V30.9614C39.1344 34.8244 35.8121 37.873 31.8116 37.787H13.1364C9.12912 37.8825 5.79595 34.8312 5.68042 30.9614V18.9144C5.69272 16.771 6.76245 14.7618 8.56033 13.5052L17.8891 6.85027C20.6129 4.92133 24.3174 4.92133 27.0412 6.85027ZM14.5145 30.569H30.4159C31.1477 30.569 31.741 29.996 31.741 29.2892C31.741 28.5824 31.1477 28.0094 30.4159 28.0094H14.5145C13.7827 28.0094 13.1894 28.5824 13.1894 29.2892C13.1894 29.996 13.7827 30.569 14.5145 30.569Z" fill="white"/>
</svg>
