<svg width="35" height="35" viewBox="0 0 35 35" fill="none" xmlns="http://www.w3.org/2000/svg">
<path d="M9.18524 4.58751C8.67555 4.07572 7.84985 4.07572 7.34016 4.58751C7.09134 4.83126 6.95101 5.16573 6.95101 5.51501C6.95101 5.86428 7.09134 6.19875 7.34016 6.4425L8.94155 8.07V9.54C8.94155 10.2649 9.52603 10.8525 10.247 10.8525C10.968 10.8525 11.5525 10.2649 11.5525 9.54V7.79C11.5591 7.23663 11.3388 6.70495 10.9433 6.32L9.18524 4.58751Z" fill="white"/>
<path fill-rule="evenodd" clip-rule="evenodd" d="M32.092 13.9675L33.9196 15.84C34.5734 16.4934 34.9427 17.3808 34.9466 18.3075V27.7575C34.9466 29.6905 33.388 31.2575 31.4654 31.2575H30.6647C30.6737 31.1235 30.6737 30.989 30.6647 30.855C30.503 28.0116 28.1624 25.789 25.3296 25.789C22.4968 25.789 20.1562 28.0116 19.9945 30.855C19.9855 30.989 19.9855 31.1235 19.9945 31.2575H12.8405C12.8496 31.1235 12.8496 30.989 12.8405 30.855C12.6789 28.0116 10.3383 25.789 7.50547 25.789C4.67262 25.789 2.33203 28.0116 2.17041 30.855C2.16132 30.989 2.16132 31.1235 2.17041 31.2575H0.133866V12.3925C0.123262 10.4209 1.21235 8.6095 2.9537 7.70256V7.52756C2.84795 3.47794 6.02754 0.108891 10.0555 0.00257679C14.0835 -0.103738 17.4345 3.09294 17.5402 7.14256H17.9232C19.8458 7.14256 21.4045 8.70956 21.4045 10.6426V12.97H29.7247C30.6114 12.9873 31.4581 13.344 32.092 13.9675ZM5.54724 7.49256C5.54724 10.1021 7.65138 12.2175 10.247 12.2175C11.4934 12.2175 12.6888 11.7197 13.5702 10.8336C14.4515 9.94752 14.9467 8.74571 14.9467 7.49256C14.9467 4.88302 12.8426 2.76757 10.247 2.76757C7.65138 2.76757 5.54724 4.88302 5.54724 7.49256ZM32.1442 20.2675H23.441C22.7268 20.2676 22.1451 19.6906 22.1355 18.9725C22.1355 18.2448 22.7172 17.6521 23.441 17.6425H32.1442C32.4935 17.6425 32.8282 17.7832 33.0735 18.0331C33.3189 18.2831 33.4543 18.6214 33.4497 18.9725C33.4592 19.3251 33.3253 19.6663 33.0789 19.9173C32.8325 20.1683 32.4949 20.3074 32.1442 20.3025V20.2675Z" fill="white"/>
<path fill-rule="evenodd" clip-rule="evenodd" d="M7.47953 26.9699C5.90641 26.9628 4.4846 27.911 3.87934 29.3709C3.27408 30.8307 3.60506 32.5135 4.71744 33.6318C5.82981 34.7502 7.50358 35.0829 8.95561 34.4744C10.4076 33.8659 11.3508 32.4365 11.3437 30.8549C11.3437 28.7093 9.61367 26.9699 7.47953 26.9699ZM7.47952 32.1324C6.78456 32.1228 6.2262 31.5536 6.22626 30.8549C6.22626 30.159 6.78737 29.5949 7.47952 29.5949C8.17168 29.5949 8.73278 30.159 8.73278 30.8549C8.73285 31.5536 8.17448 32.1228 7.47952 32.1324Z" fill="white"/>
<path fill-rule="evenodd" clip-rule="evenodd" d="M25.2688 26.9698C23.6973 26.9699 22.2808 27.9226 21.681 29.383C21.0813 30.8434 21.4166 32.5233 22.5303 33.638C23.6441 34.7527 25.3165 35.0823 26.7664 34.4727C28.2162 33.8632 29.1575 32.4348 29.1504 30.8548C29.1409 28.7064 27.4058 26.9698 25.2688 26.9698ZM25.2688 32.1323C24.5739 32.1228 24.0155 31.5536 24.0156 30.8548C24.0908 30.2115 24.6332 29.7266 25.2775 29.7266C25.9219 29.7266 26.4642 30.2115 26.5395 30.8548C26.5395 31.1936 26.4056 31.5186 26.1673 31.7582C25.929 31.9977 25.6058 32.1323 25.2688 32.1323Z" fill="white"/>
</svg>
