<svg width="198" height="143" viewBox="0 0 198 143" fill="none" xmlns="http://www.w3.org/2000/svg">
<path d="M88.7769 11.4841C97.032 6.54482 106.83 3.92955 116.442 5.1166C115.039 9.20081 113.072 13.0658 110.861 16.7647C110.397 17.529 109.701 18.2399 108.751 18.265C107.167 18.2243 105.596 17.8265 104.168 17.1406C100.658 15.4806 97.3188 13.4385 93.6682 12.0854C92.1126 11.5091 90.426 11.0769 88.7769 11.4841Z" fill="#722B91"/>
<path d="M121.57 5.94348C129.872 7.83212 137.485 12.3642 143.302 18.5814C137.619 23.3797 131.929 28.1655 126.243 32.9575C121.963 29.2429 117.704 25.5063 113.421 21.7949C116.145 16.5173 118.845 11.2241 121.57 5.94348Z" fill="#722B91"/>
<path d="M84.6243 15.6716C92.1406 16.7741 99.4137 19.3487 106.051 23.0414C104.689 25.1336 102.899 26.8969 101.103 28.6133C97.1535 32.2371 92.9792 35.7576 88.1502 38.1379C85.6188 30.9467 84.4747 23.2888 84.6243 15.6716Z" fill="#722B91"/>
<path d="M71.4717 32.6975C73.4233 27.6079 76.3662 22.9098 80.023 18.8851C80.2787 26.2016 81.5693 33.5025 84.0166 40.4087C79.1595 42.7703 73.9595 44.3519 68.6785 45.4231C69.0401 41.0821 69.9036 36.7661 71.4717 32.6975Z" fill="#722B91"/>
<path d="M129.198 36.4905C134.897 31.7423 140.546 26.9315 146.214 22.1488C151.301 28.9892 154.49 37.3518 154.749 45.9149C149.116 47.5843 143.536 49.4291 137.912 51.1329C135.022 46.2438 132.11 41.3672 129.198 36.4905Z" fill="#722B91"/>
<path d="M110.097 25.6724C113.003 27.301 115.528 29.5091 118 31.7204C119.54 33.1392 121.034 34.6144 122.393 36.2086C114.312 43.0052 106.254 49.8237 98.173 56.614C94.7718 52.3701 92.0627 47.6125 89.8555 42.645C97.6118 38.3666 104.461 32.5128 110.097 25.6724Z" fill="#722B91"/>
<path d="M101.113 60.1782C109.321 53.3002 117.473 46.3596 125.679 39.4816C128.435 44.1734 131.212 48.8527 133.974 53.5414C126.112 57.92 119.054 63.7676 113.383 70.7834C108.847 67.8142 104.763 64.1873 101.113 60.1782Z" fill="#722B91"/>
<path d="M68.7063 50.4907C74.3521 48.7493 79.9854 46.9766 85.6218 45.2007C88.4993 50.093 91.436 54.9539 94.329 59.8399C88.6614 64.6445 82.9751 69.4272 77.3106 74.238C72.254 67.3663 69.0679 59.0569 68.7063 50.4907Z" fill="#722B91"/>
<path d="M139.517 55.9219C144.368 53.6292 149.509 51.9755 154.777 50.9795C154.382 56.1317 153.212 61.2464 151.061 65.9539C149.182 70.1697 146.569 74.0315 143.539 77.4955C143.243 70.1602 141.99 62.8406 139.517 55.9219Z" fill="#722B91"/>
<path d="M117.377 73.2484C122.365 67.1221 128.506 61.9636 135.374 58.0861C137.899 65.3243 139.05 73.0103 138.944 80.6714C131.371 79.6065 124.061 76.9536 117.377 73.2484Z" fill="#722B91"/>
<path d="M26.9258 61.2401C30.1618 60.8361 33.6284 61.6692 36.0289 63.965C39.6546 67.285 40.063 73.4207 36.9891 77.2387C34.1553 80.9095 28.8805 81.9556 24.6282 80.4772C21.6479 79.4781 19.1789 76.9818 18.3745 73.9093C17.6419 71.0998 18.0036 67.9177 19.6901 65.5122C21.305 63.0911 24.0796 61.5909 26.9258 61.2401ZM26.586 65.2648C22.6798 66.3767 21.3642 71.6793 23.6462 74.8332C25.4668 77.5331 29.557 78.0624 32.1227 76.1487C35.0843 74.0158 35.3244 69.158 32.7431 66.6335C31.1625 65.0612 28.6779 64.5789 26.586 65.2648Z" fill="#722B91"/>
<path d="M80.0229 77.7491C85.8059 72.9946 91.567 68.2151 97.3251 63.4293C101.612 67.1158 105.848 70.8586 110.119 74.5607C107.423 79.8539 104.682 85.122 101.979 90.4121C93.662 88.4201 85.728 84.2356 80.0229 77.7491Z" fill="#722B91"/>
<path d="M114.518 76.963C120.878 80.5743 127.792 83.1645 134.932 84.7023C130.405 87.5463 125.389 89.6353 120.145 90.6783C115.837 91.5553 111.394 91.6712 107.024 91.2734C108.863 86.1901 111.426 81.3886 114.518 76.963Z" fill="#722B91"/>
<path d="M19.7336 91.7275C20.9526 91.7338 22.1684 91.7338 23.3873 91.7369C26.5703 95.6332 29.7439 99.5326 32.9269 103.432C32.9019 99.5326 32.9269 95.6301 32.9144 91.7307C34.389 91.7369 35.8667 91.7338 37.3444 91.7307C37.3381 98.1733 37.3381 104.613 37.3444 111.056C36.1161 111.052 34.8909 111.049 33.6657 111.059C30.4797 107.178 27.306 103.288 24.1293 99.398C24.1418 103.282 24.1324 107.169 24.1356 111.052C22.6703 111.056 21.202 111.052 19.7368 111.056C19.7336 104.613 19.7399 98.1702 19.7336 91.7275Z" fill="#722B91"/>
<path d="M21.6011 122.112C26.4425 122.049 31.2903 122.099 36.1348 122.087C36.1348 123.28 36.138 124.473 36.1411 125.667C32.7617 125.67 29.3855 125.663 26.0061 125.67C26.0123 127.038 26.0154 128.41 26.0092 129.782C28.9833 129.788 31.9574 129.776 34.9346 129.788C34.9284 130.963 34.9315 132.137 34.9315 133.312C31.9574 133.306 28.9864 133.312 26.0123 133.309C26.0092 134.79 26.0155 136.275 26.0061 137.759C29.4883 137.772 32.9706 137.766 36.4528 137.766C36.4497 138.965 36.4497 140.168 36.4528 141.371C31.5085 141.368 26.5641 141.371 21.6198 141.368C21.6011 134.95 21.6385 128.529 21.6011 122.112Z" fill="#722B91"/>
<path d="M166.259 124.411C169.09 122.037 173.345 121.911 176.6 123.452C176.338 124.003 176.073 124.555 175.808 125.106C173.264 123.787 169.816 123.822 167.581 125.745C165.392 127.655 165.112 130.825 165.302 133.55C166.381 131.567 168.585 130.362 170.814 130.396C172.703 130.28 174.729 130.772 176.089 132.162C177.887 133.879 178.14 136.832 177.002 138.984C176.061 140.801 174.059 141.844 172.083 142.035C169.891 142.267 167.494 141.806 165.86 140.234C164.033 138.467 163.354 135.852 163.26 133.381C163.061 130.18 163.743 126.609 166.259 124.411ZM169.068 132.325C166.867 132.886 165.299 135.442 166.228 137.628C167.338 140.368 171.035 140.995 173.495 139.855C175.783 138.862 176.375 135.605 174.891 133.7C173.51 132.034 171.038 131.762 169.068 132.325Z" fill="#722B91"/>
<path d="M188.724 122.629C191.096 122.084 193.759 122.801 195.426 124.614C197.397 126.685 198.064 129.66 197.995 132.448C198.02 135.342 197.175 138.461 194.931 140.415C192.116 142.949 187.252 142.567 184.892 139.589C182.567 136.644 182.267 132.557 183.006 128.993C183.589 126.061 185.675 123.22 188.724 122.629ZM189.285 124.395C186.694 124.874 185.22 127.489 184.867 129.92C184.462 132.776 184.609 136.006 186.426 138.383C188.029 140.516 191.367 140.879 193.419 139.194C195.358 137.587 195.963 134.891 195.935 132.469C196.003 130.208 195.589 127.781 194.092 126.011C192.942 124.627 191.025 124.038 189.285 124.395Z" fill="#722B91"/>
<path d="M144.611 122.613C148.742 122.6 152.873 122.61 157.006 122.61C156.941 123.236 157.15 123.988 156.67 124.498C154.983 126.606 153.318 128.736 151.626 130.844C153.216 131.044 154.927 131.339 156.137 132.494C157.839 133.988 158.141 136.616 157.306 138.646C156.548 140.475 154.675 141.596 152.788 141.919C149.674 142.442 146.223 141.797 143.823 139.642C144.144 139.113 144.468 138.586 144.792 138.057C147.177 140.112 150.722 140.92 153.664 139.689C156.009 138.724 156.43 135.113 154.419 133.6C152.916 132.426 150.902 132.585 149.116 132.567C149.175 131.953 148.969 131.232 149.409 130.728C151.089 128.642 152.745 126.531 154.428 124.445C151.158 124.433 147.885 124.451 144.614 124.436C144.611 123.825 144.611 123.217 144.611 122.613Z" fill="#722B91"/>
<path d="M72.5006 2.99307C73.6135 0.985414 75.9735 -0.229828 78.2492 0.0363975C80.4003 0.233718 82.3612 1.73711 83.1312 3.76042C84.0228 5.97792 83.4212 8.70282 81.6442 10.3002C80.2444 11.6595 78.1962 12.1168 76.3133 11.7691C75.5245 12.8591 74.5519 13.7956 73.6883 14.8197C67.7246 21.6821 63.5502 30.1449 62.0351 39.1434C60.3299 48.9248 61.2495 59.2637 65.3179 68.3624C69.2178 77.0444 75.4497 84.6992 83.2559 90.124C93.4003 97.1962 106.204 100.281 118.44 98.6338C126.256 97.619 133.828 94.725 140.322 90.2304C141.665 89.2251 143.735 89.6855 144.593 91.1106C145.522 92.4104 145.135 94.4055 143.795 95.2668C134.885 101.381 124.288 105.255 113.44 105.377C106.403 105.549 99.4108 104.14 92.7768 101.857C87.2058 99.9367 81.8624 97.2745 77.1145 93.754C70.2341 88.7333 64.7349 81.8929 61.0718 74.2005C57.362 66.3954 55.0862 57.8355 54.9023 49.1691C54.7028 39.4722 57.0627 29.744 61.661 21.2185C64.3951 16.2511 67.7246 11.5311 71.9301 7.71309C71.6214 6.13139 71.637 4.40563 72.5006 2.99307ZM76.7934 2.96801C74.608 3.4848 73.7881 6.56362 75.4279 8.10146C76.9368 9.79591 80.0169 9.04421 80.5874 6.8455C81.3667 4.61861 79.0193 2.20692 76.7934 2.96801Z" fill="#539DDC"/>
<path d="M1.35611 125.078C2.54388 123.393 4.59207 122.569 6.56856 122.3C9.50836 121.946 12.6009 122.378 15.1916 123.875C14.7395 125.015 14.2781 126.152 13.8074 127.283C11.7124 126.158 9.27767 125.457 6.90214 125.936C6.04794 126.083 5.17193 126.584 4.89759 127.461C4.60766 128.219 5.06593 129.102 5.79543 129.406C8.54194 130.665 11.8496 130.546 14.3249 132.429C16.7378 134.295 16.4479 138.301 14.1971 140.181C11.9369 142.141 8.72899 142.345 5.89207 142.035C3.80958 141.775 1.74892 141.136 0 139.943C0.505034 138.806 1.0163 137.675 1.53069 136.544C3.7067 137.994 6.37528 138.796 8.99086 138.492C9.92922 138.37 11.0359 138.07 11.4412 137.108C11.8215 136.272 11.2947 135.332 10.4966 134.997C7.83427 133.757 4.62636 133.854 2.19472 132.075C0.0280578 130.509 -0.105995 127.17 1.35611 125.078Z" fill="#539DDC"/>
<path d="M101.044 125.93C104.916 121.081 113.231 120.856 117.296 125.576C116.367 126.49 115.391 127.358 114.431 128.244C112.121 125.435 107.354 125.212 104.938 127.984C102.6 130.656 103.046 135.401 106.098 137.352C108.726 139.04 112.432 138.452 114.446 136.065C115.391 136.951 116.364 137.81 117.29 138.718C113.249 143.497 104.873 143.25 101.016 138.361C98.2167 134.865 98.2261 129.413 101.044 125.93Z" fill="#539DDC"/>
<path d="M42.769 122.541C45.7494 122.538 48.7328 122.519 51.7131 122.55C54.0325 122.575 56.4642 123.412 57.9918 125.234C59.4882 127.029 59.7157 129.613 59.0798 131.802C58.5529 133.556 57.1095 134.853 55.5196 135.645C56.9287 137.716 58.3596 139.773 59.803 141.822C58.1819 141.837 56.5639 141.875 54.946 141.797C53.7146 139.999 52.5143 138.176 51.2143 136.428C49.88 136.447 48.5457 136.438 47.2146 136.444C47.2083 138.236 47.2083 140.03 47.199 141.822C45.7182 141.844 44.2405 141.85 42.7628 141.825C42.7628 135.398 42.7534 128.971 42.769 122.541ZM47.2021 126.23C47.2177 128.448 47.2021 130.662 47.2146 132.88C49.2004 132.761 51.311 133.212 53.1971 132.407C55.5819 131.386 55.4292 127.311 52.9445 126.515C51.0927 125.927 49.1069 126.293 47.2021 126.23Z" fill="#539DDC"/>
<path d="M63.1201 122.547C64.7381 122.535 66.353 122.522 67.9709 122.553C69.6793 126.703 71.4844 130.813 73.2021 134.956C73.3611 135.348 73.6074 135.695 73.8412 136.049C75.8052 131.558 77.7162 127.045 79.6616 122.544C81.1424 122.531 82.6201 122.525 84.1009 122.556C81.3263 128.98 78.5767 135.42 75.7865 141.837C74.3182 141.837 72.8529 141.856 71.3846 141.841C68.6693 135.395 65.8666 128.983 63.1201 122.547Z" fill="#539DDC"/>
<path d="M88.3748 122.544C89.8805 122.531 91.3831 122.538 92.8889 122.538C92.8764 128.974 92.8702 135.41 92.8951 141.847C91.3925 141.869 89.8899 141.816 88.3872 141.875C88.3716 135.432 88.3966 128.99 88.3748 122.544Z" fill="#539DDC"/>
<path d="M122.964 122.541C127.793 122.531 132.622 122.538 137.451 122.538C137.463 123.728 137.469 124.915 137.479 126.105C134.121 126.133 130.764 126.118 127.406 126.115C127.4 127.483 127.406 128.855 127.397 130.224C130.374 130.286 133.354 130.252 136.334 130.246C136.344 131.423 136.347 132.604 136.338 133.785C133.357 133.788 130.377 133.769 127.397 133.797C127.409 135.273 127.4 136.748 127.406 138.226C130.898 138.245 134.389 138.214 137.884 138.242C137.875 139.451 137.871 140.663 137.868 141.875C132.905 141.812 127.939 141.831 122.976 141.869C122.936 135.426 122.96 128.983 122.964 122.541Z" fill="#539DDC"/>
</svg>
