<svg width="30" height="30" viewBox="0 0 30 30" fill="none" xmlns="http://www.w3.org/2000/svg">
<path fill-rule="evenodd" clip-rule="evenodd" d="M15.7463 3.75H23.0963C25.1674 3.75 26.8463 5.42893 26.8463 7.5V21.6125C26.8463 23.6836 25.1674 25.3625 23.0963 25.3625H15.7463C13.6753 25.3625 11.9963 23.6836 11.9963 21.6125V17.2625H14.8963C16.277 17.2625 17.3963 16.1432 17.3963 14.7625V14.35C17.3963 12.9693 16.277 11.85 14.8963 11.85H11.9963V7.5C11.9963 5.42893 13.6753 3.75 15.7463 3.75ZM18.6838 9.55H22.8713C23.3891 9.55 23.8088 9.13027 23.8088 8.6125C23.8088 8.09473 23.3891 7.675 22.8713 7.675H18.6838C18.1661 7.675 17.7463 8.09473 17.7463 8.6125C17.7463 9.13027 18.1661 9.55 18.6838 9.55Z" stroke="#722B91" stroke-width="2"/>
<path d="M15.0588 13.0625H12.0213V16.0625H15.0588C15.687 16.0625 16.1963 15.5532 16.1963 14.925V14.2C16.1963 13.5718 15.687 13.0625 15.0588 13.0625Z" stroke="#722B91" stroke-width="2"/>
<path fill-rule="evenodd" clip-rule="evenodd" d="M2.50883 8.0375C2.36518 5.86792 3.99139 3.98553 6.15883 3.8125C8.31456 3.99832 9.92266 5.87907 9.77133 8.0375V19.6875C9.78303 20.2846 9.61776 20.8717 9.29633 21.375L6.95883 24.9875C6.79326 25.2843 6.47998 25.4683 6.14008 25.4683C5.80018 25.4683 5.4869 25.2843 5.32133 24.9875L2.98383 21.375C2.66773 20.8693 2.50291 20.2838 2.50883 19.6875V8.0375ZM6.14633 12.6875C6.66409 12.6875 7.08383 12.2678 7.08383 11.75V7.425C7.08722 7.17533 6.98954 6.9349 6.81299 6.75834C6.63643 6.58178 6.39599 6.4841 6.14633 6.4875C5.62856 6.4875 5.20883 6.90723 5.20883 7.425V11.75C5.20883 12.2678 5.62856 12.6875 6.14633 12.6875Z" stroke="#722B91" stroke-width="2"/>
</svg>
