<svg width="36" height="34" viewBox="0 0 36 34" fill="none" xmlns="http://www.w3.org/2000/svg">
<path d="M17.8365 4.07666C13.0352 4.07666 9.13327 7.84513 9.13327 12.4822V16.5308C9.13327 17.3854 8.75613 18.6882 8.30647 19.4167L6.63835 22.0925C5.60847 23.7456 6.31924 25.5808 8.20493 26.1972C14.4567 28.2145 21.2017 28.2145 27.4535 26.1972C29.2087 25.6368 29.9775 23.6335 29.0201 22.0925L27.352 19.4167C26.9168 18.6882 26.5397 17.3854 26.5397 16.5308V12.4822C26.5397 7.85914 22.6232 4.07666 17.8365 4.07666Z" fill="white" stroke="white" stroke-width="1.5" stroke-miterlimit="10" stroke-linecap="round"/>
<path d="M20.5201 4.48293C20.0704 4.35685 19.6062 4.25878 19.1275 4.20275C17.735 4.03464 16.4005 4.1327 15.1531 4.48293C15.5737 3.44625 16.6181 2.71777 17.8366 2.71777C19.055 2.71777 20.0994 3.44625 20.5201 4.48293Z" stroke="white" stroke-width="1.5" stroke-miterlimit="10" stroke-linecap="round" stroke-linejoin="round"/>
<path d="M22.1881 26.7015C22.1881 29.0131 20.2299 30.9043 17.8365 30.9043C16.647 30.9043 15.5446 30.428 14.7613 29.6715C13.978 28.915 13.4849 27.8503 13.4849 26.7015" stroke="white" stroke-width="1.5" stroke-miterlimit="10"/>
</svg>
