<svg width="36" height="35" viewBox="0 0 36 35" fill="none" xmlns="http://www.w3.org/2000/svg">
<path d="M24.5338 32.8132C25.9357 32.8132 27.0722 31.6705 27.0722 30.2611C27.0722 28.8516 25.9357 27.709 24.5338 27.709C23.1319 27.709 21.9954 28.8516 21.9954 30.2611C21.9954 31.6705 23.1319 32.8132 24.5338 32.8132Z" fill="white"/>
<path d="M12.9295 32.8132C14.3315 32.8132 15.468 31.6705 15.468 30.2611C15.468 28.8516 14.3315 27.709 12.9295 27.709C11.5276 27.709 10.3911 28.8516 10.3911 30.2611C10.3911 31.6705 11.5276 32.8132 12.9295 32.8132Z" fill="white"/>
<path d="M7.9833 5.74518L7.69319 9.3181C7.63517 10.0035 8.17187 10.5723 8.85362 10.5723H31.0613C31.6705 10.5723 32.1782 10.1056 32.2217 9.4931C32.4103 6.91185 30.4521 4.81185 27.8846 4.81185H10.0576C9.91251 4.17018 9.6224 3.55768 9.17274 3.04727C8.44747 2.27435 7.4321 1.82227 6.38771 1.82227H3.86378C3.26906 1.82227 2.77588 2.3181 2.77588 2.91602C2.77588 3.51393 3.26906 4.00977 3.86378 4.00977H6.38771C6.83738 4.00977 7.25803 4.19935 7.56264 4.52018C7.86726 4.8556 8.01231 5.2931 7.9833 5.74518Z" fill="white"/>
<path d="M30.7131 12.7598H8.46185C7.85263 12.7598 7.35944 13.2264 7.30142 13.8243L6.77923 20.1681C6.57616 22.6618 8.51987 24.791 11.0003 24.791H27.1302C29.306 24.791 31.2207 22.9973 31.3803 20.8098L31.859 13.9993C31.917 13.3285 31.3948 12.7598 30.7131 12.7598Z" fill="white"/>
</svg>
