<svg width="30" height="30" viewBox="0 0 30 30" fill="none" xmlns="http://www.w3.org/2000/svg">
<path fill-rule="evenodd" clip-rule="evenodd" d="M15.6616 3.16165L26.2242 13.7241C27.2162 14.9828 27.0219 16.8032 25.7867 17.8242L17.8242 25.7867C16.8032 27.0219 14.9828 27.2162 13.7241 26.2242L3.16165 15.6616C2.6808 15.1671 2.44291 14.4855 2.51165 13.7991L3.06165 6.29915C3.23652 4.58878 4.58878 3.23652 6.29915 3.06165L13.7991 2.51165C14.4855 2.44291 15.1671 2.6808 15.6616 3.16165ZM9.59915 11.3854C10.0717 11.3854 10.5235 11.1916 10.8492 10.8491C11.1916 10.5235 11.3854 10.0717 11.3854 9.59915C11.3854 9.12662 11.1916 8.67478 10.8492 8.34915C10.1588 7.65879 9.03951 7.65879 8.34915 8.34915C7.6588 9.03951 7.6588 10.1588 8.34915 10.8491C8.67479 11.1916 9.12663 11.3854 9.59915 11.3854Z" stroke="#722B91" stroke-width="2"/>
</svg>
