<svg width="43" height="31" viewBox="0 0 43 31" fill="none" xmlns="http://www.w3.org/2000/svg">
<path d="M36.68 0.368797C36.8476 0.540047 37.2578 1.01681 37.777 1.6196C39.9654 4.16095 41.2559 5.56793 42.083 6.30362C41.1251 6.59543 40.1058 7.04205 39.1083 7.57087L35.5149 3.95819L34.8091 4.66785L38.2008 8.07777C37.3232 8.59015 36.4838 9.15185 35.7425 9.70669L33.6494 7.60238L32.9436 8.31204L34.9481 10.3273C34.9113 10.3574 34.8745 10.3876 34.8391 10.4177C34.1237 11.0137 33.4519 11.6357 32.8141 12.2809L29.4769 8.9258L28.7711 9.63546L32.1205 13.0029C31.4569 13.718 30.8328 14.4565 30.236 15.2072L28.1592 13.1194L27.4534 13.829L29.6173 16.0046C29.0232 16.7868 28.4536 17.5814 27.9003 18.3788L24.5373 14.9976L23.8314 15.7073L27.3239 19.2186C26.9628 19.7501 26.6058 20.2803 26.2515 20.8091C26.0621 21.0927 25.87 21.3777 25.6778 21.6627L23.6597 19.6337L22.9538 20.3433L25.1055 22.5066C24.5577 23.308 23.9977 24.1122 23.4158 24.9068L20.0364 21.5092L19.3305 22.2189L22.8094 25.7165C22.7426 25.8055 22.6745 25.8946 22.6064 25.9836C22.0504 26.707 21.4903 27.3509 20.9262 27.9181L20.9235 27.9208L18.8277 25.8137L18.1218 26.5234L20.1944 28.6072C19.3891 29.3155 18.5797 29.8676 17.7621 30.2608L14.3254 26.8056L13.6196 27.5153L16.7537 30.6663C14.6947 31.3307 12.603 31.0033 10.4922 29.6812C8.38144 28.3565 6.12759 25.9809 4.09448 23.7875C4.76492 24.0464 5.45034 24.2492 6.10987 24.3972C8.35964 24.8986 10.6844 24.6027 12.4858 23.5861C14.9713 22.1833 16.3899 19.631 17.7621 17.1622L17.9637 16.7978C20.4261 12.3823 22.7426 9.12719 25.254 6.55433C28.4113 3.31703 32.0279 1.07709 35.7112 0.0756181C35.9033 0.0235582 36.0859 -0.0202817 36.214 0.00985821C36.3652 0.0468481 36.5397 0.224948 36.68 0.368797Z" fill="white"/>
<path d="M18.1462 14.4699C17.796 15.0604 17.4445 15.6728 17.0902 16.3098L16.8871 16.6742C15.5831 19.0224 14.234 21.4487 11.9938 22.7132C11.8984 22.7666 11.8003 22.8187 11.7008 22.868L8.59937 19.7499C9.64045 19.7485 10.7469 19.2882 11.7648 18.4251C13.9574 16.5646 15.0066 13.5589 14.4261 10.8613L18.1476 14.4699H18.1462Z" fill="white"/>
<path d="M10.9282 17.8123C10.3314 18.2781 9.32711 18.874 8.24787 18.7206C7.22996 18.5768 6.32242 17.6822 6.13573 16.641C5.97221 15.7258 6.33877 14.7312 7.04463 14.0996L10.9282 17.8109V17.8123Z" fill="white"/>
<path d="M12.2214 8.66662C12.3468 8.78718 12.464 8.92007 12.5716 9.06255C12.9368 9.53794 13.2121 10.1325 13.3947 10.8422C13.9534 13.0068 13.2625 15.4495 11.6668 17.1373L7.13592 12.8054L6.80479 13.0232C5.57703 13.8329 4.89705 15.3947 5.15324 16.8208C5.28269 17.5456 5.64925 18.2086 6.16161 18.7197L10.6911 23.2735C9.35299 23.6955 7.82407 23.753 6.32377 23.4187C4.8371 23.0872 3.12558 22.4173 1.87601 21.4185C1.70295 21.2391 1.53262 21.0637 1.36501 20.8938L1.33095 20.9281C0.78724 20.3801 0.383889 19.7499 0.208105 19.0402C-0.815261 14.9193 2.09268 10.786 5.49527 8.83102C7.54608 7.65419 9.66776 7.33224 11.1735 7.97066C11.5687 8.1378 11.9189 8.3707 12.2214 8.66525V8.66662Z" fill="white"/>
</svg>
