<svg width="25" height="25" viewBox="0 0 25 25" fill="none" xmlns="http://www.w3.org/2000/svg">
<path d="M15.0313 3.64583H8.33335C7.91439 3.64027 7.51052 3.8021 7.21133 4.09543C6.91213 4.38876 6.74233 4.78934 6.7396 5.20833C6.73662 5.62909 6.90461 6.03303 7.20507 6.32761C7.50554 6.62218 7.91272 6.78214 8.33335 6.77083H14.9583C16.617 6.82162 17.9335 8.18428 17.9271 9.84375V12.1042C17.9271 13.8301 16.528 15.2292 14.8021 15.2292H9.37501L9.76043 14.8437C10.3702 14.2311 10.3679 13.24 9.75522 12.6302C9.14253 12.0204 8.15149 12.0227 7.54168 12.6354L4.44793 15.625C4.30321 15.7728 4.18672 15.9458 4.10418 16.1354C3.96576 16.5012 3.96576 16.905 4.10418 17.2708C4.18404 17.4619 4.30086 17.6354 4.44793 17.7812L7.4896 20.8333C8.1032 21.4438 9.09474 21.4438 9.70835 20.8333C10.3119 20.221 10.3119 19.2374 9.70835 18.625L9.37501 18.3021H14.8646C18.3164 18.3021 21.1146 15.5039 21.1146 12.0521V9.84375C21.1321 6.45811 18.4166 3.69154 15.0313 3.64583Z" fill="#722B91"/>
</svg>
